<?xml version="1.0" standalone="no"?>
<!DOCTYPE svg PUBLIC "-//W3C//DTD SVG 20010904//EN"
 "http://www.w3.org/TR/2001/REC-SVG-20010904/DTD/svg10.dtd">
<svg version="1.0" xmlns="http://www.w3.org/2000/svg" viewBox="0 0 686.000000 1280.000000"
 preserveAspectRatio="xMidYMid meet">
<metadata>
Created by potrace 1.15, written by Peter Selinger 2001-2017
</metadata>
<g transform="translate(0.000000,1280.000000) scale(0.100000,-0.100000)"
fill="currentColor" stroke="none">
<path d="M2700 12243 c-63 -21 -49 -148 36 -318 39 -77 83 -139 164 -230 l54
-60 -52 50 c-29 27 -52 45 -52 39 0 -8 -108 -35 -152 -37 -15 -1 -14 -5 3 -39
11 -21 17 -38 14 -38 -7 0 -85 160 -85 176 0 18 -40 64 -55 64 -43 0 -55 -56
-31 -150 l14 -55 -51 55 c-74 79 -170 226 -233 358 -56 117 -68 128 -109 98
-54 -40 24 -309 136 -463 23 -32 80 -98 128 -147 47 -49 71 -79 54 -67 -25 17
-33 19 -33 8 0 -21 -129 -157 -148 -157 -15 0 -15 -2 -2 -10 21 -14 1 -12 -53
4 -26 8 -47 11 -47 6 0 -4 15 -22 33 -40 17 -18 24 -28 14 -23 -13 7 -31 3
-65 -13 -26 -13 -56 -24 -67 -25 -11 -1 0 -5 25 -9 l45 -7 -44 -1 c-24 -1 -91
-9 -150 -18 -74 -11 -140 -14 -218 -10 -88 4 -113 2 -113 -7 0 -7 29 -35 66
-61 36 -27 63 -50 60 -53 -2 -3 -30 3 -61 12 -32 9 -59 14 -61 12 -3 -3 12
-26 32 -53 20 -27 28 -41 17 -32 -17 16 -21 16 -40 3 -12 -8 -57 -29 -100 -46
-43 -17 -82 -35 -88 -40 -6 -6 -29 12 -60 46 l-51 55 -66 0 c-63 0 -67 -2 -98
-36 -26 -30 -30 -41 -24 -67 3 -17 15 -43 26 -58 11 -15 18 -35 15 -45 -4 -16
-5 -16 -6 3 l-1 21 -25 -21 -24 -22 32 -6 c31 -6 31 -6 -9 -8 -22 0 -62 6 -88
15 -26 9 -49 14 -52 11 -6 -5 14 -44 43 -87 13 -19 14 -22 3 -13 -20 16 -42 3
-30 -17 6 -8 10 -19 10 -25 0 -5 -10 8 -23 29 -12 22 -34 48 -50 60 -27 20
-28 20 -80 2 -110 -39 -123 -66 -86 -187 27 -93 52 -142 97 -199 20 -25 28
-38 17 -30 -10 8 -16 10 -12 3 9 -14 -16 -134 -42 -204 l-20 -52 36 34 c20 19
-28 -39 -105 -128 -78 -89 -167 -181 -197 -205 -30 -23 -55 -46 -55 -49 0 -12
194 -20 229 -10 19 6 37 8 40 6 2 -3 0 -5 -5 -5 -5 0 -8 -19 -6 -41 3 -30 7
-38 14 -28 7 10 8 7 4 -11 -14 -68 -18 -140 -7 -140 6 0 11 3 11 8 0 4 10 18
21 32 l20 25 -15 -32 c-9 -18 -16 -57 -16 -90 1 -56 1 -57 16 -33 l15 25 -7
-25 c-59 -214 -114 -364 -153 -419 -11 -16 -25 -41 -31 -56 -11 -28 -10 -28
26 -22 51 9 131 49 184 94 25 20 36 26 24 12 -20 -23 -21 -27 -8 -129 7 -58
13 -109 13 -113 1 -5 5 -6 10 -3 5 3 -2 -27 -16 -67 -21 -60 -26 -105 -37
-282 -12 -209 -12 -210 -45 -273 -19 -34 -31 -65 -28 -68 10 -11 131 60 172
101 22 22 57 69 78 105 21 36 35 55 32 43 -4 -16 -2 -23 8 -23 15 0 188 -110
226 -144 l24 -21 -12 22 c-24 47 -9 33 38 -34 48 -68 95 -112 199 -187 28 -21
52 -40 52 -43 0 -2 -14 6 -32 18 -26 19 -21 10 25 -46 87 -105 134 -213 136
-312 1 -25 6 -33 24 -36 12 -2 3 -5 -20 -6 -23 0 -45 3 -48 9 -11 17 -94 62
-131 70 -32 7 -104 -4 -104 -16 0 -3 7 -16 16 -29 16 -24 16 -25 -11 -25 -22
0 -26 4 -22 20 7 26 -13 26 -41 0 -33 -31 -27 -40 28 -40 78 0 140 -43 170
-118 7 -18 21 -38 30 -45 10 -7 43 -50 74 -97 31 -46 46 -75 34 -63 l-23 22
-1 -45 c-2 -49 -20 -125 -40 -166 -13 -25 -12 -27 19 -47 17 -11 27 -21 22
-21 -32 0 -112 75 -183 170 -30 41 -60 78 -66 82 -6 4 -49 8 -97 8 -72 0 -93
-4 -137 -26 -77 -38 -174 -158 -114 -140 9 3 45 10 79 17 57 11 65 10 115 -13
33 -16 82 -53 128 -99 41 -41 97 -88 124 -104 96 -59 94 -57 71 -52 -17 3 -20
-1 -20 -27 0 -26 7 -35 40 -54 42 -24 39 -24 -65 14 -36 13 -72 24 -81 24 -24
0 -148 -119 -172 -165 -28 -55 -39 -229 -13 -219 9 4 23 22 31 40 19 47 73
111 98 118 11 3 30 0 41 -6 42 -23 257 -59 363 -62 43 -1 37 -15 -7 -17 -23 0
-23 -1 -5 -8 11 -5 27 -6 35 -4 8 3 5 -3 -7 -14 -44 -36 -44 -61 -3 -157 66
-154 128 -216 215 -216 l35 0 -44 58 c-25 31 -49 69 -55 84 -9 23 -7 27 14 32
13 3 36 17 51 31 15 14 33 25 42 25 24 0 89 58 115 103 14 23 38 53 54 67 15
14 22 18 16 10 -22 -24 -15 -27 36 -14 27 7 75 16 107 20 58 7 58 8 25 16 -68
18 -22 15 99 -6 69 -13 137 -29 152 -36 23 -11 34 -10 72 4 24 9 49 23 56 30
9 12 20 10 62 -6 46 -17 56 -18 94 -5 35 11 49 11 85 0 66 -19 112 -16 145 9
16 12 23 15 16 6 -11 -14 -5 -17 60 -28 40 -7 91 -19 112 -27 l40 -14 -25 27
-24 27 32 -23 c17 -12 53 -29 80 -36 32 -8 40 -13 23 -14 -22 0 -20 -3 15 -19
45 -21 54 -19 34 6 -7 10 0 6 16 -8 17 -15 41 -30 55 -34 14 -4 41 -22 60 -40
19 -18 52 -38 74 -45 21 -7 34 -15 28 -19 -7 -4 -3 -12 10 -20 18 -11 20 -11
15 3 -11 27 0 18 21 -18 24 -40 60 -66 104 -75 17 -4 34 -13 36 -21 5 -13 3
-13 -14 0 -17 12 -17 12 -6 0 7 -8 16 -15 20 -15 4 0 23 -12 42 -26 19 -15 45
-30 57 -33 13 -4 30 -20 39 -35 9 -15 35 -39 59 -54 29 -19 44 -36 48 -56 3
-15 31 -53 61 -85 31 -31 56 -66 56 -77 0 -11 25 -47 55 -78 34 -36 57 -70 60
-87 5 -34 55 -134 56 -113 1 8 5 -3 10 -25 5 -21 23 -59 40 -84 28 -42 58
-121 62 -164 1 -9 6 -16 11 -15 6 1 13 -21 16 -48 3 -30 15 -64 29 -85 21 -30
22 -32 4 -17 l-21 18 14 -63 c7 -35 14 -121 15 -193 1 -82 4 -119 9 -100 8 30
8 30 9 -8 1 -23 -3 -36 -10 -35 -7 2 -17 -24 -25 -61 -19 -91 -43 -158 -77
-216 -38 -66 -54 -83 -106 -117 -59 -37 -126 -38 -185 -4 -40 24 -152 136
-135 136 4 0 25 15 45 32 41 36 73 98 74 141 0 25 -3 27 -22 20 -13 -4 -63 -8
-113 -8 -73 0 -107 6 -178 29 -48 16 -83 32 -77 36 7 4 -12 24 -45 49 -30 23
-61 50 -67 60 -7 11 -19 17 -32 14 -12 -2 -1 6 23 19 24 13 44 28 43 33 -1 6
-43 17 -94 26 -123 22 -141 26 -105 28 17 1 26 5 22 11 -4 6 -16 8 -28 5 -12
-4 16 16 63 43 75 43 132 94 119 106 -2 2 -33 -3 -69 -11 -49 -10 -102 -12
-210 -8 -125 6 -246 20 -200 24 8 1 -14 12 -50 24 -57 20 -67 21 -77 8 -17
-20 -16 -2 2 29 8 14 14 38 15 53 l0 29 -48 -39 c-58 -49 -83 -64 -64 -41 11
14 10 16 -5 14 -10 -2 -17 -11 -16 -21 1 -11 -2 -14 -9 -7 -6 6 -2 24 11 51
19 36 51 140 51 164 0 5 -21 -7 -47 -27 -61 -46 -103 -68 -221 -117 -104 -42
-115 -45 -89 -26 14 10 -6 12 -109 10 -92 -1 -130 -5 -136 -15 -7 -9 -8 -7 -4
6 16 48 29 154 22 181 l-8 30 -18 -25 c-11 -14 -29 -37 -40 -52 -13 -17 -77
-55 -168 -100 -128 -63 -156 -82 -220 -145 -40 -39 -66 -60 -57 -47 l16 25
-50 -26 c-28 -14 -76 -35 -106 -46 -31 -12 -59 -27 -62 -35 -3 -9 -22 10 -53
53 -26 38 -67 86 -92 109 -50 46 -136 100 -145 90 -3 -3 6 -32 20 -64 39 -85
42 -146 21 -359 -11 -103 -20 -170 -22 -148 -4 39 -5 38 -52 -70 -45 -104 -47
-111 -32 -130 15 -18 14 -18 -8 1 -54 46 -202 108 -238 99 -23 -6 -23 -7 15
-34 47 -34 74 -87 109 -214 37 -138 83 -276 111 -332 22 -46 18 -46 -15 2 -11
16 -11 16 -2 -4 5 -12 10 -32 10 -44 0 -16 5 -20 20 -16 11 3 18 1 14 -4 -3
-5 -12 -9 -20 -9 -8 0 -14 -4 -14 -10 0 -5 4 -10 8 -10 5 0 19 -15 32 -32 l23
-33 -28 25 c-23 21 -26 22 -18 5 6 -11 16 -46 23 -78 8 -33 19 -57 26 -57 7 0
15 -3 17 -7 3 -5 -41 -8 -97 -9 -114 0 -236 -20 -236 -38 0 -7 26 -20 58 -30
55 -17 155 -58 236 -97 45 -21 56 -23 56 -9 0 13 -116 71 -200 100 -36 13 -69
27 -73 31 -18 14 79 21 192 13 l116 -9 -89 -5 c-53 -3 -91 -10 -93 -16 -2 -6
41 -37 97 -68 55 -32 100 -59 100 -62 0 -3 -9 0 -20 6 -17 9 -20 8 -19 -7 0
-12 21 -28 59 -47 66 -32 145 -81 117 -72 -12 4 -2 -15 30 -53 62 -77 129
-172 126 -181 -1 -4 10 -5 25 -3 17 3 9 -4 -23 -18 -74 -33 -185 -109 -213
-146 l-25 -33 209 0 c150 -1 244 -6 334 -19 69 -11 115 -19 102 -20 -15 -1 13
-19 80 -54 96 -49 104 -52 122 -38 11 9 5 -5 -14 -31 -18 -27 -31 -50 -29 -53
3 -2 27 2 54 10 53 17 94 20 60 5 -17 -7 -17 -9 -2 -9 9 -1 17 -7 17 -13 0 -7
12 1 26 17 22 26 21 24 -4 -15 -16 -25 -53 -68 -81 -95 -28 -27 -51 -54 -51
-59 0 -22 308 14 415 49 16 5 15 3 -3 -8 -23 -13 -23 -13 18 -32 51 -23 103
-82 119 -135 10 -35 7 -121 -6 -142 -2 -4 3 -5 11 -2 28 11 17 -5 -13 -21 -17
-8 -71 -54 -121 -102 -86 -81 -117 -119 -107 -129 2 -2 37 11 78 30 72 33 152
61 103 35 -11 -6 -27 -26 -36 -45 -16 -34 -11 -35 27 -5 11 9 -7 -11 -40 -44
-33 -34 -78 -94 -100 -134 -22 -40 -61 -98 -87 -128 -42 -47 -57 -73 -44 -73
2 0 48 23 102 51 54 28 89 43 77 32 -21 -17 -30 -43 -37 -103 -1 -14 -20 -61
-40 -104 -44 -92 -61 -196 -33 -196 9 0 23 13 32 29 25 49 34 45 28 -11 -3
-29 -1 -69 4 -88 l9 -34 33 47 c33 48 55 67 25 22 -14 -21 -14 -29 -3 -62 l14
-38 6 40 c4 27 7 5 8 -64 0 -57 8 -130 17 -164 20 -78 75 -187 119 -236 39
-43 142 -117 151 -109 3 3 -6 28 -19 54 -49 95 -46 104 15 49 81 -75 167 -117
248 -123 44 -3 70 -1 74 7 4 7 0 11 -11 11 -11 0 -43 12 -72 26 -85 43 -178
186 -186 287 -2 29 -2 41 1 28 l6 -23 14 21 c9 12 12 27 8 34 -11 19 9 -3 40
-46 15 -20 30 -37 35 -37 4 0 6 42 5 93 -1 50 0 80 2 65 l5 -27 30 34 c23 25
29 40 24 57 -3 13 6 3 20 -22 51 -87 88 -109 78 -45 -6 37 18 213 25 182 4
-18 5 -17 18 2 9 12 12 26 9 31 -3 6 -4 10 -2 10 3 0 16 -19 30 -42 14 -24 37
-54 52 -68 l27 -25 -9 30 c-16 59 -7 131 25 199 17 36 34 66 37 66 3 0 -2 -14
-10 -31 -16 -30 -15 -29 39 13 30 24 56 50 59 58 4 12 5 11 6 -2 2 -34 31 -20
32 15 0 17 3 27 5 20 7 -17 114 36 114 57 0 8 12 -5 27 -30 33 -56 122 -170
133 -170 4 0 10 46 12 102 4 82 11 122 37 198 18 52 36 99 41 103 4 5 26 -17
48 -50 38 -56 91 -106 140 -132 22 -12 23 -11 17 11 -4 12 -14 35 -21 50 -28
55 -64 220 -63 292 0 39 3 65 6 57 3 -7 17 14 33 50 25 58 26 66 13 89 -11 19
-7 17 15 -7 16 -18 36 -33 45 -33 15 0 15 5 -4 51 -11 29 -18 57 -15 63 2 6 5
2 6 -9 1 -15 6 -10 21 18 17 32 18 41 7 55 -7 9 14 -6 47 -34 98 -83 132 -105
180 -119 25 -8 45 -12 45 -9 0 2 -17 27 -39 54 -47 59 -96 173 -116 270 -18
86 -20 112 -5 90 8 -12 10 -10 10 10 0 38 51 118 113 181 48 49 57 54 62 38 7
-21 25 -26 25 -6 1 6 7 26 15 42 8 17 12 20 10 9 -6 -21 -5 -22 29 -5 18 9 32
19 29 24 -2 4 -1 7 4 7 4 0 16 -26 25 -58 20 -70 79 -160 143 -222 l47 -45 -8
35 c-5 19 -9 85 -9 145 1 132 18 203 80 329 38 77 51 95 30 43 -3 -8 25 15 62
50 37 34 73 63 78 63 6 0 3 5 -5 10 -10 6 -11 10 -3 10 7 0 18 -9 25 -20 7
-11 16 -20 20 -20 5 0 8 9 8 20 0 11 5 20 10 20 6 0 10 17 11 38 0 20 3 31 6
25 8 -21 23 -15 23 10 0 16 6 10 20 -22 11 -24 27 -49 34 -55 7 -6 31 -38 52
-71 l39 -60 3 65 c2 39 8 69 16 75 19 15 66 249 75 379 5 61 9 95 10 76 3 -33
3 -33 11 -10 4 14 17 48 29 77 19 49 19 53 3 62 -32 19 -2 11 39 -10 23 -11
43 -19 45 -16 2 2 -5 30 -16 62 -11 32 -20 62 -20 67 0 5 19 -6 43 -25 54 -44
154 -107 169 -107 7 0 -2 15 -19 33 -80 84 -104 179 -101 407 1 96 4 159 7
140 7 -42 14 -33 31 40 7 30 17 60 22 67 6 8 3 13 -9 16 -14 4 -13 5 5 6 27 1
27 4 5 39 -17 26 -17 27 1 12 18 -14 19 -13 14 8 -4 12 -5 22 -5 22 1 0 24 -7
51 -15 63 -19 166 -19 211 -1 45 19 44 32 -2 40 -80 12 -144 80 -207 219 -46
100 -89 234 -80 248 4 8 3 9 -4 5 -7 -4 -12 -5 -12 -2 0 2 -3 13 -6 23 -5 15
-4 16 6 3 9 -12 10 -5 6 34 -3 27 -6 77 -6 112 0 57 -2 63 -22 67 l-23 4 23 2
c29 1 28 19 -4 52 l-26 28 62 -20 c84 -26 165 -25 210 2 l34 21 -52 22 c-71
29 -111 62 -180 154 -61 80 -152 216 -152 227 0 3 5 3 12 -1 7 -4 8 -3 4 5 -4
6 -11 9 -16 6 -4 -3 -16 8 -25 23 l-18 27 23 -20 c23 -20 23 -20 16 0 -18 48
-27 120 -24 180 3 63 2 65 -22 66 -14 1 -4 5 23 9 26 5 60 19 76 32 15 13 49
35 74 50 37 22 48 36 66 82 20 55 28 126 14 126 -4 0 -33 -18 -64 -40 -64 -45
-111 -59 -134 -40 -8 7 -22 10 -30 6 -9 -3 -13 -2 -10 4 3 6 13 10 21 10 9 0
14 11 14 35 0 33 -1 35 -22 25 -20 -9 -19 -8 2 7 58 42 92 80 99 112 9 48 65
76 144 75 31 -1 57 3 57 7 0 17 -65 81 -101 100 -48 24 -92 24 -148 -1 -24
-11 -53 -20 -65 -20 -27 0 -76 -32 -93 -62 l-13 -23 6 26 c4 21 -1 31 -30 53
l-36 27 -10 -25 c-15 -40 -19 -31 -7 17 5 23 21 55 34 71 20 24 23 35 18 75
-9 67 24 128 87 161 54 28 59 42 23 58 -41 19 -78 14 -144 -19 -50 -25 -70
-43 -99 -86 -53 -79 -60 -93 -71 -143 -10 -44 -10 -44 -5 -5 4 37 2 42 -36 68
-31 22 -48 27 -73 23 -26 -4 -24 -3 9 8 100 33 110 56 25 56 -47 0 -60 3 -64
18 -2 9 -8 25 -12 34 -5 13 5 23 44 43 28 14 72 28 97 32 l45 6 -28 29 c-45
47 -79 61 -142 56 -47 -4 -70 -14 -139 -58 l-83 -53 -32 17 c-18 9 -23 14 -12
10 45 -14 58 -14 26 0 -18 9 -37 14 -42 11 -4 -3 -25 3 -46 14 -55 28 -198 68
-273 77 -57 7 -61 9 -30 13 l35 6 -33 14 c-43 18 -138 81 -177 117 -73 67 -72
66 -94 55 -40 -22 -21 -3 24 23 60 36 155 130 155 154 0 19 -2 19 -57 6 -32
-8 -96 -14 -143 -14 -154 0 -401 13 -389 21 8 4 -4 12 -32 19 -24 6 -74 23
-111 36 -44 17 -75 23 -90 18 -15 -4 -7 6 21 27 25 19 46 39 48 45 5 14 -38
20 -202 31 -76 5 -101 9 -80 14 17 4 24 7 17 8 -7 0 -30 12 -52 26 -40 25 -52
23 -27 -5 6 -8 0 -4 -15 9 -15 13 -26 29 -25 35 1 6 -8 10 -20 8 -14 -2 -39
13 -75 44 -77 69 -166 162 -186 196 -9 17 -38 41 -64 54 -25 13 -56 37 -67 53
-12 16 -45 41 -74 55 -50 23 -147 113 -147 135 0 10 -56 80 -114 144 -14 16
-26 33 -26 38 0 23 -42 89 -70 109 -23 17 -30 29 -30 55 0 48 -15 76 -59 107
-31 22 -40 36 -45 69 -5 29 -17 52 -43 78 -21 20 -38 41 -39 46 -2 6 -8 24
-13 40 l-11 30 3 -37 c2 -21 -1 -38 -5 -38 -4 0 -8 18 -8 40 0 42 -27 107 -54
129 -10 8 -16 30 -16 55 0 22 -9 61 -20 86 l-20 45 20 -25 20 -25 -10 28 c-5
16 -10 49 -11 75 -1 46 -1 46 -10 15 -5 -18 -11 -33 -12 -33 -7 0 3 192 12
225 6 22 11 56 12 75 l2 35 7 -35 c7 -32 7 -33 9 -7 0 15 8 42 17 60 17 32 16
32 -3 15 -30 -27 -35 -21 -7 9 13 14 28 40 33 57 6 21 10 25 10 11 1 -15 6
-11 19 15 28 57 115 136 194 175 82 40 184 55 250 37 29 -8 36 -7 32 3 -3 7
16 -7 42 -31 66 -60 152 -104 269 -136 l100 -28 -69 6 c-38 3 -87 12 -109 20
-56 20 -64 18 -38 -10 33 -36 108 -72 192 -95 93 -25 125 -37 133 -50 4 -6
-13 -8 -46 -4 -79 8 -248 -37 -248 -66 0 -5 19 -4 43 1 57 13 158 3 215 -22
43 -19 122 -84 122 -101 0 -4 -19 -3 -42 3 -30 6 -55 6 -81 -2 -42 -12 -41
-30 2 -30 16 0 55 -18 90 -40 34 -22 78 -48 99 -57 l37 -17 -28 -4 c-16 -2
-53 4 -83 14 -41 13 -65 15 -91 8 -48 -12 -55 -34 -11 -35 18 0 49 -11 68 -25
85 -60 125 -84 138 -84 7 0 10 -4 7 -10 -3 -5 -26 -10 -50 -10 -24 0 -46 -4
-49 -9 -6 -9 71 -45 120 -55 l31 -7 -35 -65 c-39 -75 -39 -116 0 -186 35 -63
43 -48 21 37 -3 11 -11 27 -19 36 -25 28 -1 84 80 184 16 19 27 37 25 40 -3 2
-24 -1 -48 -6 -24 -5 -53 -7 -64 -3 -18 6 -15 9 24 29 24 13 53 33 64 45 l20
22 -57 -7 c-64 -8 -108 3 -152 40 l-29 23 59 -5 c51 -4 64 -2 93 19 52 35 51
48 -5 48 -47 0 -106 22 -152 58 -23 18 -22 18 67 18 50 -1 87 -2 81 -4 -5 -2
0 -13 11 -25 11 -12 26 -29 34 -38 8 -9 15 -24 16 -35 0 -18 1 -18 9 1 7 16 9
14 10 -15 1 -60 34 -119 77 -136 32 -14 47 -14 110 -4 50 9 100 10 156 5 45
-5 107 -9 137 -9 34 -1 64 -7 79 -18 l24 -17 -34 -30 c-18 -17 -63 -40 -99
-52 -36 -12 -78 -29 -95 -37 -29 -15 -30 -14 -16 4 8 10 35 38 59 62 25 23 42
45 39 48 -3 3 -31 -4 -62 -15 -76 -29 -141 -43 -126 -28 6 6 11 17 11 25 0 24
-39 6 -140 -65 l-24 -18 22 36 c22 37 29 79 13 79 -5 0 -42 -22 -83 -49 -89
-58 -131 -107 -126 -148 3 -27 4 -26 24 18 21 46 49 71 113 104 33 16 34 16
27 -1 -5 -11 -10 -46 -13 -79 l-6 -60 30 40 c16 22 38 47 48 55 17 14 18 13
11 -25 l-7 -40 27 34 c29 36 78 61 119 61 14 0 25 -2 25 -4 0 -2 -13 -30 -30
-61 -41 -79 -39 -97 8 -48 22 24 56 47 85 56 26 10 67 24 91 33 24 8 65 33 90
55 l46 41 48 -28 c26 -15 89 -56 140 -91 126 -88 153 -142 89 -182 -18 -11
-39 -31 -46 -45 -21 -39 -9 -111 26 -154 40 -49 147 -130 257 -195 98 -57 115
-80 97 -125 -25 -61 0 -92 202 -251 141 -110 215 -189 340 -366 25 -35 32 -25
17 22 -37 116 -140 244 -316 388 -127 105 -168 150 -159 179 19 65 17 82 -10
114 -15 18 -80 75 -144 127 -120 95 -181 156 -181 178 0 7 18 23 40 37 42 26
80 87 80 128 0 91 -114 204 -333 331 -162 93 -152 83 -153 170 -1 42 -8 95
-17 118 -12 32 -13 41 -3 37 16 -6 30 23 16 31 -6 4 -10 12 -10 18 0 8 3 8 9
-1 11 -19 68 40 97 103 13 28 24 43 24 34 0 -12 13 -9 68 17 37 18 78 34 92
36 14 2 28 11 32 23 3 12 7 -2 8 -35 1 -30 5 -63 9 -74 6 -16 11 -14 40 20 19
21 42 56 52 78 10 23 19 34 19 25 0 -12 14 -18 58 -23 31 -4 81 -15 110 -25
l53 -18 -23 25 c-13 14 31 -21 96 -78 160 -138 226 -180 283 -180 24 0 60 -7
80 -15 19 -8 51 -15 69 -15 21 0 49 -11 76 -30 28 -20 70 -35 121 -46 72 -14
85 -14 148 0 82 18 137 45 188 91 21 19 42 35 46 35 4 0 5 -45 3 -100 l-5
-101 29 28 c47 45 76 103 94 189 9 43 25 90 35 103 19 24 24 56 13 86 -7 18
-55 45 -80 45 -9 0 -27 11 -40 25 -31 33 -56 32 -101 -7 -21 -18 -32 -25 -24
-15 13 16 13 20 0 28 -11 7 -11 9 4 9 23 0 68 94 75 156 2 24 -3 74 -13 113
-10 44 -15 85 -11 106 6 31 3 40 -24 66 -24 24 -36 30 -53 24 -12 -4 -39 -9
-59 -12 -26 -4 -46 -15 -64 -36 -24 -28 -26 -38 -22 -92 3 -33 2 -76 -2 -95
l-7 -35 -2 43 c-1 39 -4 44 -38 60 -21 9 -41 21 -44 25 -8 11 -19 -17 -19 -45
0 -12 -3 -19 -6 -16 -3 4 0 48 6 100 12 90 12 95 -14 169 -14 41 -26 90 -26
108 0 35 -37 81 -65 81 -31 0 -162 -80 -173 -106 -17 -36 -16 -40 33 -138 39
-77 45 -98 43 -145 -1 -43 -2 -47 -5 -18 -4 34 -6 36 -25 26 -30 -16 -206 -7
-245 13 -31 15 -70 7 -58 -13 4 -5 -3 -9 -14 -9 -15 0 -9 10 31 48 31 30 49
55 47 66 -4 15 -9 13 -44 -12 -40 -29 -112 -58 -121 -49 -3 2 8 8 23 12 l28 7
-39 14 c-35 13 -41 12 -59 -3 -11 -10 -4 4 16 30 46 60 51 80 45 170 -8 117
-50 180 -230 343 -159 145 -218 237 -218 340 0 62 14 96 58 137 39 38 90 49
187 41 63 -5 90 -2 120 10 67 29 115 86 115 140 0 40 -16 38 -29 -4 -8 -27
-22 -45 -49 -62 -33 -20 -54 -24 -177 -29 -150 -5 -176 -13 -229 -65 -133
-133 -74 -320 165 -529 138 -121 216 -229 234 -329 7 -36 -24 -126 -44 -126
-5 0 -13 27 -18 60 -9 71 -24 81 -37 25 -10 -47 -39 -123 -32 -85 4 23 -4 29
-101 75 -87 41 -273 152 -293 175 -3 3 -24 20 -48 39 -31 24 -41 28 -36 14 4
-15 3 -14 -6 2 -6 11 -46 54 -89 95 -42 41 -63 64 -47 50 l31 -25 -29 32 c-16
18 -32 31 -34 28 -7 -6 -42 25 -42 37 0 5 6 6 13 2 6 -4 -8 14 -33 40 -24 25
-46 46 -49 46 -3 0 13 -19 34 -42 33 -36 31 -35 -13 7 -48 46 -71 73 -37 45
24 -20 17 -1 -14 39 -15 20 -31 43 -34 51 -3 8 -6 -3 -8 -25 -1 -31 -3 -25
-10 28 -15 130 -72 222 -192 311 -121 90 -225 217 -242 296 -26 127 -113 97
-134 -47 -5 -32 -9 -47 -10 -33 -1 19 -7 26 -22 27 -12 1 -31 10 -42 20 -21
18 -21 18 -7 -2 8 -11 23 -32 34 -46 12 -14 -6 3 -40 38 -83 87 -146 208 -195
380 -21 75 -44 143 -51 150 -23 23 -56 4 -74 -43 -23 -60 -15 -121 35 -274 22
-68 39 -126 37 -127 -5 -6 -118 119 -169 187 -61 80 -134 205 -171 290 -32 74
-45 90 -66 83z m750 -723 c0 -5 -2 -10 -4 -10 -3 0 -8 5 -11 10 -3 6 -1 10 4
10 6 0 11 -4 11 -10z m1111 -1042 l24 -20 -31 17 c-17 10 -41 26 -55 37 l-24
20 31 -17 c17 -10 41 -26 55 -37z m140 -95 c13 -16 12 -17 -3 -4 -10 7 -18 15
-18 17 0 8 8 3 21 -13z m464 -223 c3 -6 -1 -7 -9 -4 -18 7 -21 14 -7 14 6 0
13 -4 16 -10z m82 -26 c-3 -3 -12 -4 -19 -1 -8 3 -5 6 6 6 11 1 17 -2 13 -5z
m680 -273 c-3 -9 -5 -5 -6 9 -2 24 -2 24 -16 6 -18 -24 -19 -17 -4 21 l11 28
9 -24 c6 -14 8 -32 6 -40z m-3507 35 c0 -2 -8 -10 -17 -17 -16 -13 -17 -12 -4
4 13 16 21 21 21 13z m843 -111 c37 -4 55 -10 51 -17 -5 -7 0 -9 14 -6 12 4
20 2 17 -2 -3 -5 -2 -10 2 -13 5 -2 2 -2 -6 0 -7 2 -46 10 -85 19 -39 9 -75
21 -81 26 -7 7 -3 8 10 5 11 -3 46 -8 78 -12z m147 -71 c0 -2 -9 0 -20 6 -11
6 -20 13 -20 16 0 2 9 0 20 -6 11 -6 20 -13 20 -16z m65 -54 c10 -11 16 -20
13 -20 -3 0 -13 9 -23 20 -10 11 -16 20 -13 20 3 0 13 -9 23 -20z m-100 -14
c54 -15 147 -55 128 -56 -6 0 2 -14 18 -31 16 -17 29 -35 29 -39 0 -5 8 -11
18 -13 10 -3 6 -5 -11 -6 -35 -1 -60 12 -117 62 -55 48 -90 67 -155 83 l-50
12 45 1 c25 0 68 -5 95 -13z m-2124 -1373 c13 -16 12 -17 -3 -4 -17 13 -22 21
-14 21 2 0 10 -8 17 -17z m410 -380 c13 -16 12 -17 -3 -4 -17 13 -22 21 -14
21 2 0 10 -8 17 -17z m1742 -1450 c-7 -2 -19 -2 -25 0 -7 3 -2 5 12 5 14 0 19
-2 13 -5z m1167 -965 c29 -38 30 -40 6 -18 -25 23 -52 60 -43 60 2 0 19 -19
37 -42z m-1223 -504 c-3 -3 -12 -4 -19 -1 -8 3 -5 6 6 6 11 1 17 -2 13 -5z
m1430 -261 c-3 -10 -5 -2 -5 17 0 19 2 27 5 18 2 -10 2 -26 0 -35z m0 -155
c-3 -7 -5 -2 -5 12 0 14 2 19 5 13 2 -7 2 -19 0 -25z m1 -45 c-8 -10 -20 -27
-26 -38 -6 -11 -12 -15 -12 -9 0 12 38 64 47 64 3 0 -1 -8 -9 -17z m-41 -100
c-3 -10 -5 -4 -5 12 0 17 2 24 5 18 2 -7 2 -21 0 -30z m-1744 -80 c-13 -2 -33
-2 -45 0 -13 2 -3 4 22 4 25 0 35 -2 23 -4z m110 -20 c-13 -2 -33 -2 -45 0
-13 2 -3 4 22 4 25 0 35 -2 23 -4z m-80 -13 c82 -12 198 -55 261 -98 51 -35
61 -39 49 -19 -11 18 68 -47 97 -80 20 -22 17 -21 -15 7 l-40 35 34 -37 c19
-21 38 -35 42 -32 11 6 90 -66 84 -76 -3 -5 8 -29 25 -54 44 -65 68 -125 73
-181 9 -103 -33 -170 -141 -222 -65 -31 -88 -37 -169 -41 -72 -4 -90 -7 -78
-16 12 -8 -5 -10 -67 -7 -66 4 -75 6 -43 10 l40 6 -53 11 c-40 9 -50 8 -42 -1
8 -9 2 -10 -24 -1 -19 6 -33 13 -30 17 3 6 -62 24 -77 21 -3 0 -23 5 -45 13
-21 8 -32 14 -24 15 8 0 -9 11 -38 25 -149 69 -245 174 -279 302 -55 209 116
398 372 412 11 0 51 -4 88 -9z m298 -87 c13 -17 13 -17 -6 -3 -11 8 -22 16
-24 17 -2 2 0 3 6 3 6 0 17 -8 24 -17z m250 -230 c13 -16 12 -17 -3 -4 -17 13
-22 21 -14 21 2 0 10 -8 17 -17z m23 -39 c3 -8 2 -12 -4 -9 -6 3 -10 10 -10
16 0 14 7 11 14 -7z m27 -41 c13 -16 12 -17 -3 -4 -17 13 -22 21 -14 21 2 0
10 -8 17 -17z m-936 -233 c3 -6 -1 -7 -9 -4 -18 7 -21 14 -7 14 6 0 13 -4 16
-10z m40 -30 c10 -11 16 -20 13 -20 -3 0 -13 9 -23 20 -10 11 -16 20 -13 20 3
0 13 -9 23 -20z m119 -79 c-2 -3 -12 3 -22 13 -16 17 -16 18 5 5 12 -7 20 -15
17 -18z m127 -38 c13 -16 12 -17 -3 -4 -17 13 -22 21 -14 21 2 0 10 -8 17 -17z
m452 -40 c-7 -2 -19 -2 -25 0 -7 3 -2 5 12 5 14 0 19 -2 13 -5z m-60 -10 c-7
-2 -19 -2 -25 0 -7 3 -2 5 12 5 14 0 19 -2 13 -5z m-66 -9 c-3 -3 -12 -4 -19
-1 -8 3 -5 6 6 6 11 1 17 -2 13 -5z m-860 -690 c-3 -3 -12 -4 -19 -1 -8 3 -5
6 6 6 11 1 17 -2 13 -5z m513 -1218 c0 -2 -8 -10 -17 -17 -16 -13 -17 -12 -4
4 13 16 21 21 21 13z"/>
<path d="M3340 4166 c0 -2 8 -10 18 -17 15 -13 16 -12 3 4 -13 16 -21 21 -21
13z"/>
<path d="M3486 4035 c4 -9 16 -21 28 -27 19 -10 19 -9 -3 16 -28 30 -33 32
-25 11z"/>
<path d="M3070 11725 c7 -9 15 -13 17 -11 7 7 -7 26 -19 26 -6 0 -6 -6 2 -15z"/>
<path d="M2276 9525 c-3 -9 -6 -26 -5 -38 1 -14 4 -9 9 13 9 37 7 52 -4 25z"/>
<path d="M2282 9440 c0 -14 2 -19 5 -12 2 6 2 18 0 25 -3 6 -5 1 -5 -13z"/>
<path d="M3923 9203 c15 -2 39 -2 55 0 15 2 2 4 -28 4 -30 0 -43 -2 -27 -4z"/>
<path d="M2321 9169 c-1 -21 5 -42 14 -49 13 -11 13 -8 5 16 -5 16 -11 38 -13
49 -3 11 -5 4 -6 -16z"/>
<path d="M2860 8292 c0 -10 88 -98 92 -91 2 2 -18 25 -44 52 -27 26 -48 44
-48 39z"/>
<path d="M3406 7806 c3 -8 13 -17 21 -20 25 -10 23 -3 -3 17 -18 13 -22 14
-18 3z"/>
<path d="M3710 6293 c8 -3 22 -11 30 -17 13 -10 13 -9 1 7 -7 9 -21 17 -30 16
-13 0 -14 -1 -1 -6z"/>
<path d="M4143 5985 c10 -7 25 -22 33 -32 14 -16 14 -16 3 7 -13 26 -28 40
-44 40 -5 -1 -2 -7 8 -15z"/>
<path d="M4245 5889 c16 -19 33 -38 36 -42 4 -5 4 2 2 16 -3 13 -19 32 -36 42
l-32 18 30 -34z"/>
<path d="M4377 5726 c20 -26 27 -28 17 -3 -3 8 -12 18 -20 21 -11 4 -10 0 3
-18z"/>
<path d="M4494 5563 c9 -18 18 -33 20 -33 9 0 -8 41 -22 52 -13 11 -12 8 2
-19z"/>
<path d="M4647 5249 c4 -13 8 -18 11 -10 2 7 -1 18 -6 23 -8 8 -9 4 -5 -13z"/>
<path d="M4701 5104 c0 -11 3 -14 6 -6 3 7 2 16 -1 19 -3 4 -6 -2 -5 -13z"/>
<path d="M4311 1723 c-1 -6 -4 -20 -7 -30 -5 -17 -5 -17 6 0 6 10 9 23 6 30
-3 9 -5 9 -5 0z"/>
</g>
</svg>
